<?xml version="1.0" encoding="utf-8"?>
<!-- Generator: Adobe Illustrator 16.0.0, SVG Export Plug-In . SVG Version: 6.00 Build 0)  -->
<!DOCTYPE svg PUBLIC "-//W3C//DTD SVG 1.1//EN" "http://www.w3.org/Graphics/SVG/1.1/DTD/svg11.dtd">
<svg version="1.1" id="Layer_1" xmlns="http://www.w3.org/2000/svg" xmlns:xlink="http://www.w3.org/1999/xlink" x="0px" y="0px"
	 width="484px" height="484px" viewBox="0 0 484 484" enable-background="new 0 0 484 484" xml:space="preserve">
<path fill="#63B6BA" d="M409.75,220H264V74.25l42.152,42.152l153.626-92.18L367.598,177.87L409.75,220z M101.992,101.992
	C43.274,160.71,29.26,247.126,59.752,319.198L34.21,365.574C-21.098,272.668-9.064,150.81,70.884,70.862
	c79.948-79.948,201.806-91.982,294.69-36.674L319.22,59.73C247.126,29.26,160.732,43.252,101.992,101.992z M74.25,264H220v145.75
	l-42.152-42.152L24.222,459.778l92.18-153.626L74.25,264z M382.008,381.986c58.982-58.96,72.82-145.816,41.822-218.064
	l25.586-46.112c55.726,92.972,43.802,215.204-36.3,295.306c-80.146,80.124-202.334,92.048-295.306,36.3l46.112-25.586
	C236.148,454.828,323.048,440.99,382.008,381.986z"/>
</svg>
