<?xml version="1.0" encoding="UTF-8" standalone="no"?>
<svg xmlns="http://www.w3.org/2000/svg" version="1.1" width="43" height="43">
 <metadata id="metadata8"/>
 <g id="logo-icon" transform="matrix(1.25,0,0,-1.25,-0.28128151,56.039761)">
  <g id="g20" transform="matrix(0.77142696,0,0,0.77142696,22.167257,25.799714)">
   <path d="m 0,0 c 0.002,5.884 6.053,13.777 6.053,13.777 0,0 -7.899,-6.048 -13.781,-6.047 -4.827,0.002 -6.427,-4.931 -4.814,-8.74 -1.171,-4.009 -4.31,-8.105 -4.31,-8.105 0,0 4.097,3.138 8.108,4.304 C -4.938,-6.426 -0.005,-4.828 0,0" id="path22" fill="#FFFFFF"/>
  </g>
  <g id="g24" transform="matrix(0.77142696,0,0,0.77142696,31.624025,25.732677)">
   <path d="m 0,0 c -0.521,-3.961 -2.298,-7.788 -5.34,-10.83 -7.334,-7.333 -19.224,-7.333 -26.556,0 -7.336,7.333 -7.071,19.225 0.265,26.559 3.251,3.248 6.906,5.058 11.906,5.426 l 0,3.516 c -5,-0.379 -10.45,-2.533 -14.384,-6.469 -8.704,-8.698 -8.834,-22.808 -0.131,-31.51 8.699,-8.702 22.742,-8.702 31.443,0 3.787,3.787 5.891,8.598 6.379,13.541 L 0,0 z" id="path26" fill="#FFFFFF"/>
  </g>
  <g id="g28" transform="matrix(0.77142696,0,0,0.77142696,18.001243,44.793094)">
   <path d="m 0,0 0.004,-3.506 c 4.479,-0.228 8.893,-2.052 12.315,-5.473 3.625,-3.628 5.457,-8.367 5.498,-13.119 l 3.499,0.231 c -0.097,5.57 -2.27,11.111 -6.521,15.361 C 10.689,-2.398 5.381,-0.23 0,0" id="path30" fill="#FFFFFF"/>
  </g>
 </g>
</svg>
